<svg width="256" height="256" viewBox="0 0 256 256" fill="none" xmlns="http://www.w3.org/2000/svg">
<path d="M128 0L124.343 5.85143H131.657L128 0Z" fill="#EA5C4F"/>
<path d="M256 128L250.149 124.343V131.657L256 128Z" fill="#CBCCCB"/>
<path d="M128 256L131.657 250.149H124.343L128 256Z" fill="#CBCCCB"/>
<path d="M0 128L5.85143 131.657V124.343L0 128Z" fill="#CBCCCB"/>
<path d="M49.5751 49.393L48.4793 50.4888L42.5185 48.6151L46.4357 52.5324L45.3991 53.5689L39.4986 47.6684L40.6141 46.5528L46.6045 48.4956L42.6379 44.529L43.6745 43.4924L49.5751 49.393Z" fill="white" fill-opacity="0.25"/>
<path d="M51.5958 35.5711L56.1241 42.8439L54.9493 44.0187L50.0449 41.0097L53.044 45.9241L51.8593 47.1087L44.6063 42.5607L45.6725 41.4945L50.7052 44.7502L47.5383 39.6286L48.644 38.5229L53.7656 41.6898L50.5 36.667L51.5958 35.5711Z" fill="white" fill-opacity="0.25"/>
<path d="M211.53 46.9361L210.435 45.8409L212.312 39.8791L208.392 43.7984L207.356 42.7623L213.26 36.8587L214.375 37.9737L212.429 43.9651L216.398 39.9965L217.434 41.0326L211.53 46.9361Z" fill="white" fill-opacity="0.25"/>
<path d="M216.665 52.0708L212.955 48.3608L218.858 42.4572L222.568 46.1672L221.581 47.1545L218.907 44.4805L217.417 45.9712L219.903 48.4577L218.916 49.4449L216.429 46.9584L214.978 48.4096L217.652 51.0836L216.665 52.0708Z" fill="white" fill-opacity="0.25"/>
<path d="M216.913 212.841C217.143 213.072 217.278 213.312 217.318 213.562C217.35 213.726 217.37 213.97 217.377 214.292C217.376 214.608 217.353 214.841 217.307 214.993C217.215 215.322 217.07 215.585 216.873 215.782L215.155 217.5C214.727 217.928 214.036 218.073 213.082 217.935C212.99 217.922 212.829 217.879 212.599 217.807L213.25 216.504C213.566 216.556 213.862 216.563 214.139 216.523C214.158 216.517 214.185 216.497 214.218 216.464L215.837 214.845L215.886 214.776C215.919 214.664 215.936 214.496 215.936 214.273C215.936 214.049 215.916 213.917 215.876 213.878L215.294 213.296C215.196 213.197 215.1 213.181 215.008 213.246L211.711 215.083C211.402 215.261 211.076 215.317 210.734 215.251C210.398 215.179 210.109 215.021 209.866 214.778L209.333 214.245C209.103 214.015 208.964 213.778 208.918 213.534C208.892 213.376 208.879 213.139 208.879 212.824C208.879 212.495 208.899 212.251 208.939 212.093C209.031 211.764 209.176 211.501 209.373 211.304L210.834 209.842C211.255 209.421 211.946 209.276 212.907 209.408C213.065 209.434 213.246 209.483 213.45 209.556L212.739 210.839C212.37 210.773 212.074 210.767 211.85 210.819C211.837 210.819 211.814 210.836 211.781 210.869L210.389 212.261L210.34 212.33C210.3 212.448 210.281 212.613 210.281 212.823C210.287 213.027 210.31 213.149 210.35 213.188L210.843 213.682C210.942 213.78 211.034 213.8 211.119 213.741L214.446 211.914C214.749 211.743 215.074 211.694 215.423 211.766C215.765 211.832 216.055 211.983 216.291 212.22L216.913 212.841Z" fill="white" fill-opacity="0.25"/>
<path d="M223.302 209.254L219.591 212.966L213.69 207.065L217.402 203.354L218.389 204.34L215.713 207.016L217.203 208.506L219.691 206.018L220.678 207.004L218.19 209.492L219.64 210.943L222.316 208.267L223.302 209.254Z" fill="white" fill-opacity="0.25"/>
<path d="M51.2734 211.278C51.5037 211.048 51.7439 210.913 51.9939 210.873C52.1585 210.84 52.4019 210.82 52.7243 210.814C53.0402 210.814 53.2737 210.837 53.4251 210.883C53.754 210.975 54.0172 211.119 54.2145 211.317L55.9314 213.034C56.359 213.461 56.5036 214.152 56.3651 215.106C56.352 215.198 56.3091 215.359 56.2367 215.59L54.9341 214.939C54.9868 214.623 54.9934 214.327 54.954 214.05C54.9475 214.031 54.9277 214.004 54.8948 213.971L53.2766 212.353L53.2076 212.304C53.0957 212.271 52.9279 212.255 52.7042 212.255C52.4805 212.255 52.3489 212.275 52.3094 212.314L51.727 212.896C51.6282 212.995 51.6118 213.091 51.6775 213.183L53.5124 216.479C53.69 216.788 53.7459 217.114 53.68 217.456C53.6075 217.791 53.4495 218.081 53.206 218.324L52.6729 218.858C52.4426 219.088 52.2056 219.226 51.9622 219.272C51.8043 219.299 51.5674 219.312 51.2516 219.312C50.9226 219.312 50.6791 219.292 50.5212 219.253C50.1923 219.161 49.9291 219.016 49.7317 218.819L48.2714 217.358C47.8504 216.937 47.7058 216.247 47.8377 215.286C47.864 215.128 47.9134 214.947 47.9859 214.743L49.2687 215.453C49.2029 215.822 49.1962 216.118 49.2488 216.342C49.2488 216.355 49.2652 216.378 49.2981 216.411L50.6894 217.802L50.7584 217.851C50.8769 217.891 51.0414 217.91 51.2519 217.91C51.4559 217.904 51.5776 217.881 51.6171 217.841L52.1107 217.348C52.2094 217.249 52.2292 217.157 52.17 217.071L50.345 213.746C50.174 213.443 50.1247 213.117 50.1972 212.769C50.2631 212.426 50.4145 212.137 50.6514 211.9L51.2734 211.278Z" fill="white" fill-opacity="0.25"/>
<path d="M39.0033 208.011L46.2785 203.479L47.4526 204.654L44.4411 209.56L49.357 206.558L50.5411 207.742L45.9893 214.997L44.9236 213.932L48.1819 208.897L43.0587 212.067L41.9536 210.962L45.1231 205.839L40.0986 209.107L39.0033 208.011Z" fill="white" fill-opacity="0.25"/>
<path d="M131.015 18.2848H129.521L126.735 12.944V18.2848H125.321V10.24H126.842L129.602 15.6481V10.24H131.015V18.2848Z" fill="#EA5C4F"/>
<path d="M237.711 130.321V125.262H245.76V130.321H244.414V126.675H242.382V130.065H241.036V126.675H239.057V130.321H237.711Z" fill="#CBCCCB"/>
<path d="M124.649 239.572C124.649 239.258 124.72 239.002 124.864 238.805C124.954 238.67 125.106 238.491 125.321 238.267C125.537 238.051 125.712 237.908 125.846 237.836C126.134 237.675 126.412 237.594 126.681 237.594H129.023C129.606 237.594 130.176 237.966 130.732 238.711C130.786 238.782 130.867 238.921 130.975 239.128L129.642 239.572C129.463 239.321 129.265 239.114 129.05 238.953C129.032 238.944 129.001 238.939 128.956 238.939H126.748L126.667 238.953C126.569 239.007 126.443 239.11 126.291 239.262C126.138 239.415 126.062 239.518 126.062 239.572V240.365C126.062 240.5 126.116 240.576 126.223 240.594L129.723 241.59C130.055 241.679 130.315 241.863 130.504 242.141C130.683 242.419 130.773 242.724 130.773 243.056V243.782C130.773 244.096 130.705 244.352 130.571 244.549C130.481 244.675 130.329 244.845 130.113 245.06C129.889 245.285 129.709 245.437 129.575 245.518C129.288 245.679 129.009 245.76 128.74 245.76H126.748C126.174 245.76 125.604 245.388 125.039 244.643C124.949 244.518 124.859 244.361 124.77 244.173L126.129 243.782C126.335 244.078 126.533 244.285 126.721 244.401C126.73 244.41 126.757 244.415 126.802 244.415H128.7L128.781 244.401C128.888 244.347 129.014 244.249 129.158 244.105C129.292 243.962 129.359 243.863 129.359 243.809V243.137C129.359 243.002 129.31 242.926 129.211 242.908L125.698 241.886C125.375 241.796 125.12 241.608 124.931 241.321C124.743 241.042 124.649 240.742 124.649 240.419V239.572Z" fill="#CBCCCB"/>
<path d="M10.24 123.244L18.289 125.114V126.715L12.8916 128.007L18.289 129.312V130.926L10.24 132.769V131.316L15.8931 130.105L10.24 128.774V127.267L15.8931 125.935L10.24 124.738V123.244Z" fill="#CBCCCB"/>
<path d="M89.7121 227.337L87.5036 232.755C87.074 232.58 86.6456 232.402 86.2186 232.222L88.4921 226.831C88.8975 227.002 89.3044 227.171 89.7121 227.337Z" fill="#CBCBCA" fill-opacity="0.25"/>
<path d="M177.095 232.222C176.668 232.402 176.24 232.58 175.81 232.755L173.602 227.337C174.01 227.171 174.417 227.002 174.822 226.831L177.095 232.222Z" fill="#CBCBCA" fill-opacity="0.25"/>
<path d="M29.1686 167.508L23.7771 169.781C23.5971 169.354 23.4194 168.925 23.2443 168.496L28.6629 166.288C28.8291 166.696 28.9976 167.103 29.1686 167.508Z" fill="#CBCBCA" fill-opacity="0.25"/>
<path d="M240.069 168.496C239.894 168.925 239.717 169.354 239.536 169.781L234.146 167.508C234.317 167.103 234.485 166.696 234.651 166.288L240.069 168.496Z" fill="#CBCBCA" fill-opacity="0.25"/>
<path d="M29.1686 81.1779C28.9976 81.5832 28.8291 81.9901 28.6629 82.3979L23.2443 80.1893C23.2555 80.1617 23.2666 80.134 23.2779 80.1064L23.7771 78.9043L29.1686 81.1779Z" fill="#CBCBCA" fill-opacity="0.25"/>
<path d="M240.069 80.1893L234.651 82.3979C234.485 81.9901 234.317 81.5832 234.146 81.1779L239.536 78.9043C239.717 79.3313 239.894 79.7597 240.069 80.1893Z" fill="#CBCBCA" fill-opacity="0.25"/>
<path d="M89.7121 21.3486C89.3044 21.5148 88.8975 21.6833 88.4921 21.8543L86.2186 16.4629C86.6456 16.2828 87.074 16.1051 87.5036 15.93L89.7121 21.3486Z" fill="#CBCBCA" fill-opacity="0.25"/>
<path d="M177.095 16.4629L174.822 21.8543C174.417 21.6833 174.01 21.5148 173.602 21.3486L175.81 15.93C176.24 16.1051 176.668 16.2828 177.095 16.4629Z" fill="#CBCBCA" fill-opacity="0.25"/>
</svg>
